<?xml version="1.0" encoding="UTF-8"?>
<svg id="Layer_2" data-name="Layer 2" xmlns="http://www.w3.org/2000/svg" viewBox="0 0 3000 300">
  <defs>
    <style>
      .cls-1 {
        fill: #fff;
      }

      .cls-2 {
        fill: #fdd835;
      }

      .cls-3, .cls-4 {
        fill: #e53935;
      }

      .cls-5 {
        fill: none;
      }

      .cls-4 {
        opacity: .4;
      }
    </style>
  </defs>
  <g id="Layer_3" data-name="Layer 3">
    <rect class="cls-5" x="1500" width="1500" height="300"/>
    <rect class="cls-5" width="1500" height="300"/>
    <path class="cls-4" d="m1434.27,22.31H435.89c-.44,0-.87.04-1.31.07H144.96c-.26,0-.51.03-.77.04-.51,0-1.02-.04-1.53-.04-70.5,0-127.66,57.16-127.66,127.66s57.16,127.66,127.66,127.66c1.88,0,3.75-.06,5.62-.14.09,0,.17.01.26.01h1153.87c14.1,0,25.53-11.43,25.53-25.53s-11.43-25.53-25.53-25.53h-104.16c-14.44,0-26.14-11.42-26.14-25.5s11.7-25.5,26.14-25.5h185.86c14.1,0,25.53-11.43,25.53-25.53h0c0-14.1-11.43-25.53-25.53-25.53h-56.17c-14.49,0-26.24-11.43-26.24-25.53s11.75-25.53,26.24-25.53h106.33c14.1,0,25.53-11.43,25.53-25.53s-11.43-25.53-25.53-25.53Z"/>
    <path class="cls-3" d="m1079,217.02h-98.48c-12.63,0-22.87-10-22.87-22.34s10.24-22.34,22.87-22.34h26.67c12.34,0,22.34-10,22.34-22.34s-10-22.34-22.34-22.34h-78.99c-12.68,0-22.96-10-22.96-22.34s10.28-22.34,22.96-22.34h150.79c12.34,0,22.34-10,22.34-22.34s-10-22.34-22.34-22.34H144.78c-.23,0-.45.03-.67.03-.45,0-.89-.03-1.34-.03-61.69,0-111.7,50.01-111.7,111.7s50.01,111.7,111.7,111.7c1.15,0,2.28-.05,3.42-.09.57.04,1.14.09,1.71.09h931.09c12.34,0,22.34-10,22.34-22.34s-10-22.34-22.34-22.34Z"/>
    <path class="cls-2" d="m699.85,130.85h-209.68c-10.87,0-19.68-8.57-19.68-19.15s8.81-19.15,19.68-19.15h134.68c10.58,0,19.15-8.57,19.15-19.15s-8.57-19.15-19.15-19.15H144.61c-.19,0-.38.02-.57.03-.38,0-.76-.03-1.15-.03-52.88,0-95.74,42.87-95.74,95.75s42.87,95.74,95.74,95.74c.98,0,1.96-.04,2.94-.07.49.04.97.07,1.47.07h493.2c10.58,0,19.15-8.57,19.15-19.15s-8.57-19.15-19.15-19.15h-75.57c-10.83,0-19.6-8.57-19.6-19.15s8.78-19.15,19.6-19.15h134.93c10.58,0,19.15-8.57,19.15-19.15s-8.57-19.15-19.15-19.15Z"/>
    <path class="cls-1" d="m348.15,197.87h-41.8c-9.02,0-16.34-7.15-16.34-15.96s7.31-15.96,16.34-15.96h25.21c8.81,0,15.96-7.14,15.96-15.96s-7.14-15.96-15.96-15.96h-50.58c-9.06,0-16.4-7.14-16.4-15.96s7.34-15.96,16.4-15.96h29.52c8.81,0,15.96-7.15,15.96-15.96s-7.14-15.96-15.96-15.96h-166.28c-.1,0-.19.03-.29.03-.38,0-.76-.03-1.15-.03-44.07,0-79.79,35.72-79.79,79.79s35.72,79.79,79.79,79.79c.98,0,1.96-.04,2.93-.07.25.01.48.07.74.07h201.7c8.81,0,15.96-7.14,15.96-15.96s-7.14-15.96-15.96-15.96Z"/>
    <g>
      <path class="cls-4" d="m2709.22,73.37h225.06c14.1,0,25.53-11.43,25.53-25.53s-11.43-25.53-25.53-25.53h-998.38c-.44,0-.88.04-1.31.07h-289.62c-.26,0-.51.03-.77.04-.51,0-1.02-.04-1.53-.04-70.5,0-127.66,57.16-127.66,127.66s57.16,127.66,127.66,127.66c1.32,0,2.62-.06,3.93-.1.64.05,1.29.1,1.94.1h1267.81c14.1,0,25.53-11.43,25.53-25.53s-11.43-25.53-25.53-25.53h-218.09c-14.44,0-26.14-11.44-26.14-25.56s11.7-25.56,26.14-25.56h104.15c14.1,0,25.53-11.43,25.53-25.53h0c0-14.1-11.43-25.53-25.53-25.53h-93.18c-14.49,0-26.24-11.43-26.24-25.53s11.75-25.53,26.24-25.53Z"/>
      <path class="cls-3" d="m2344.91,82.98h173.45c12.34,0,22.34-10,22.34-22.34s-10-22.34-22.34-22.34h-873.58c-.23,0-.45.03-.67.03-.45,0-.89-.03-1.34-.03-61.69,0-111.7,50.01-111.7,111.7s50.01,111.7,111.7,111.7c1.15,0,2.28-.05,3.42-.09.57.04,1.14.09,1.71.09h859.29c12.34,0,22.34-10,22.34-22.34s-10-22.34-22.34-22.34h-122.73c-12.63,0-22.87-10-22.87-22.34s10.24-22.34,22.87-22.34h28.27c12.34,0,22.34-10,22.34-22.34s-10-22.34-22.34-22.34h-67.82c-12.68,0-22.96-10-22.96-22.34s10.28-22.34,22.96-22.34Z"/>
      <path class="cls-2" d="m2177.51,130.85h-273.51c-10.87,0-19.68-8.57-19.68-19.15s8.81-19.15,19.68-19.15h60c10.58,0,19.15-8.57,19.15-19.15s-8.57-19.15-19.15-19.15h-319.39c-.19,0-.38.02-.57.03-.38,0-.76-.03-1.15-.03-52.88,0-95.74,42.87-95.74,95.75s42.87,95.74,95.74,95.74c.98,0,1.96-.04,2.94-.07.49.04.97.07,1.47.07h455.22c10.58,0,19.15-8.57,19.15-19.15s-8.57-19.15-19.15-19.15h-107.8c-10.83,0-19.6-8.57-19.6-19.15s8.78-19.15,19.6-19.15h182.8c10.58,0,19.15-8.57,19.15-19.15s-8.57-19.15-19.15-19.15Z"/>
      <path class="cls-1" d="m1883.89,197.87h-122.55c-9.02,0-16.34-7.15-16.34-15.96s7.31-15.96,16.34-15.96h37.97c8.81,0,15.96-7.14,15.96-15.96s-7.14-15.96-15.96-15.96h-52.18c-9.06,0-16.4-7.14-16.4-15.96s7.34-15.96,16.4-15.96h84.09c8.81,0,15.96-7.15,15.96-15.96s-7.14-15.96-15.96-15.96h-187.02c-.1,0-.19.03-.29.03-.38,0-.76-.03-1.15-.03-44.07,0-79.79,35.72-79.79,79.79s35.72,79.79,79.79,79.79c.98,0,1.96-.04,2.93-.07.25.01.48.07.74.07h237.45c8.81,0,15.96-7.14,15.96-15.96s-7.14-15.96-15.96-15.96Z"/>
    </g>
  </g>
</svg>