<?xml version="1.0" encoding="UTF-8"?>
<svg id="Layer_2" data-name="Layer 2" xmlns="http://www.w3.org/2000/svg" xmlns:xlink="http://www.w3.org/1999/xlink" viewBox="0 0 500 500">
  <defs>
    <style>
      .cls-1 {
        fill: #039be5;
      }

      .cls-2 {
        clip-path: url(#clippath);
      }

      .cls-3 {
        fill: #4fc3f7;
      }

      .cls-4 {
        fill: none;
      }

      .cls-5 {
        opacity: .3;
      }
    </style>
    <clipPath id="clippath">
      <circle class="cls-4" cx="250" cy="250" r="250"/>
    </clipPath>
  </defs>
  <g id="Layer_3" data-name="Layer 3">
    <circle class="cls-3" cx="250" cy="250" r="250"/>
    <g class="cls-2">
      <path class="cls-1" d="m361.79,250h-133.04c-15.31,0-27.72-11.19-27.72-25s-12.41-25-27.72-25h-29.93c-15.31,0-27.72-11.19-27.72-25s12.41-25,27.72-25h95.34c15.31,0,27.72-11.19,27.72-25s12.41-25,27.72-25h41.02c15.31,0,27.72-11.19,27.72-25s-12.41-25-27.72-25h-54.32c-15.31,0-27.72-11.19-27.72-25h0c0-13.81-13.71-25-30.62-25H-164.55c-16.91,0-30.62,11.19-30.62,25s-13.71,25-30.62,25h-89.8c-15.31,0-27.72,11.19-27.72,25s12.41,25,27.72,25h109.76c15.31,0,27.72,11.19,27.72,25s12.41,25,27.72,25h25.5c15.31,0,27.72,11.19,27.72,25s-12.41,25-27.72,25h-66.52c-15.31,0-27.72,11.19-27.72,25s-12.41,25-27.72,25h-35.48c-15.31,0-27.72,11.19-27.72,25s12.41,25,27.72,25h76.5c15.31,0,27.72,11.19,27.72,25s12.41,25,27.72,25h25.5c15.31,0,27.72,11.19,27.72,25s-12.41,25-27.72,25h-209.53c-15.31,0-27.72,11.19-27.72,25h0c0,13.81,12.41,25,27.72,25h87.58c15.31,0,27.72,11.19,27.72,25s12.41,25,27.72,25H158.91c15.31,0,27.72-11.19,27.72-25s12.41-25,27.72-25h68.74c15.31,0,27.72-11.19,27.72-25h0c0-13.81-12.41-25-27.72-25h-104.21c-15.31,0-27.72-11.19-27.72-25s12.41-25,27.72-25h32.15c15.31,0,27.72-11.19,27.72-25s12.41-25,27.72-25h95.34c15.31,0,27.72-11.19,27.72-25s-12.41-25-27.72-25Z"/>
    </g>
    <path class="cls-5" d="m64.3,186.81c0-53.54,16.84-103.14,45.5-143.82C43.54,87.95,0,163.89,0,250c0,138.07,111.93,250,250,250,84.53,0,159.26-41.96,204.5-106.18-39.98,27.13-88.24,42.99-140.2,42.99-138.07,0-250-111.93-250-250Z"/>
  </g>
</svg>